# xmcd
#
# Track frame offsets: 
#        150
#        7045
#        16131
#        116531
#        133022
#        152756
#        169258
#        185860
#        202384
#        212534
#        223143
#        232211
#        243281
#        254122
#        265250
#        281579
#        298079
#
# Disc length: 4208 seconds
#
# Revision: 0
# Processed by: cddbd v1.5.2PL0 Copyright (c) Steve Scherf et al.
# Submitted via: ExactAudioCopy v0.95b3
#
DISCID=15106e11
DTITLE=Jimi Hendrix  - Ladyland Sessions1 May 67-January 68 (ATM 234) 
DTITLE=Disc 1
DYEAR=1900
DGENRE=
TTITLE0=Burning Of The Midnight Lamp
TTITLE1=Burning Of The Midnight Lamp
TTITLE2=Burning Of The Midnight Lamp
TTITLE3=Burning Of The Midnight Lamp
TTITLE4=Burning Of The Midnight Lamp
TTITLE5=Burning Of The Midnight Lamp
TTITLE6=Burning Of The Midnight Lamp
TTITLE7=Burning Of The Midnight Lamp
TTITLE8=Dream
TTITLE9=Dream
TTITLE10=Dance
TTITLE11=Crosstown Traffic
TTITLE12=Crosstown Traffic
TTITLE13=Crosstown Traffic
TTITLE14=Little One
TTITLE15=Little One
TTITLE16=Little One
EXTD=
EXTT0=
EXTT1=
EXTT2=
EXTT3=
EXTT4=
EXTT5=
EXTT6=
EXTT7=
EXTT8=
EXTT9=
EXTT10=
EXTT11=
EXTT12=
EXTT13=
EXTT14=
EXTT15=
EXTT16=
PLAYORDER=
